<mxfile host="app.diagrams.net" agent="Mozilla/5.0 (Windows NT 10.0; Win64; x64) AppleWebKit/537.36 (KHTML, like Gecko) Chrome/128.0.0.0 YaBrowser/24.10.0.0 Safari/537.36" version="24.8.6">
  <diagram name="Страница — 1" id="FZuVYSKQKKseB5JXQPXO">
    <mxGraphModel dx="1386" dy="783" grid="1" gridSize="10" guides="1" tooltips="1" connect="1" arrows="1" fold="1" page="1" pageScale="1" pageWidth="827" pageHeight="1169" math="0" shadow="0">
      <root>
        <mxCell id="0" />
        <mxCell id="1" parent="0" />
        <mxCell id="S8vqt_jlQauHGAst1Mx5-29" value="" style="edgeStyle=orthogonalEdgeStyle;rounded=0;orthogonalLoop=1;jettySize=auto;html=1;" edge="1" parent="1" source="S8vqt_jlQauHGAst1Mx5-30" target="S8vqt_jlQauHGAst1Mx5-33">
          <mxGeometry relative="1" as="geometry" />
        </mxCell>
        <mxCell id="S8vqt_jlQauHGAst1Mx5-30" value="Начало" style="strokeWidth=2;html=1;shape=mxgraph.flowchart.terminator;whiteSpace=wrap;" vertex="1" parent="1">
          <mxGeometry x="360" y="40" width="130" height="40" as="geometry" />
        </mxCell>
        <mxCell id="S8vqt_jlQauHGAst1Mx5-31" value="Конец" style="strokeWidth=2;html=1;shape=mxgraph.flowchart.terminator;whiteSpace=wrap;" vertex="1" parent="1">
          <mxGeometry x="367.5" y="900" width="130" height="40" as="geometry" />
        </mxCell>
        <mxCell id="S8vqt_jlQauHGAst1Mx5-32" value="" style="edgeStyle=orthogonalEdgeStyle;rounded=0;orthogonalLoop=1;jettySize=auto;html=1;" edge="1" parent="1" source="S8vqt_jlQauHGAst1Mx5-33" target="S8vqt_jlQauHGAst1Mx5-37">
          <mxGeometry relative="1" as="geometry" />
        </mxCell>
        <mxCell id="S8vqt_jlQauHGAst1Mx5-33" value="Ввод: ID CAPEC" style="shape=parallelogram;perimeter=parallelogramPerimeter;whiteSpace=wrap;html=1;fixedSize=1;" vertex="1" parent="1">
          <mxGeometry x="340" y="120" width="170" height="60" as="geometry" />
        </mxCell>
        <mxCell id="S8vqt_jlQauHGAst1Mx5-34" value="" style="edgeStyle=orthogonalEdgeStyle;rounded=0;orthogonalLoop=1;jettySize=auto;html=1;" edge="1" parent="1" source="S8vqt_jlQauHGAst1Mx5-35" target="S8vqt_jlQauHGAst1Mx5-31">
          <mxGeometry relative="1" as="geometry" />
        </mxCell>
        <mxCell id="S8vqt_jlQauHGAst1Mx5-35" value="Вывод пустого значения" style="shape=parallelogram;perimeter=parallelogramPerimeter;whiteSpace=wrap;html=1;fixedSize=1;" vertex="1" parent="1">
          <mxGeometry x="372.5" y="820" width="120" height="60" as="geometry" />
        </mxCell>
        <mxCell id="S8vqt_jlQauHGAst1Mx5-36" value="" style="edgeStyle=orthogonalEdgeStyle;rounded=0;orthogonalLoop=1;jettySize=auto;html=1;" edge="1" parent="1" source="S8vqt_jlQauHGAst1Mx5-37" target="S8vqt_jlQauHGAst1Mx5-39">
          <mxGeometry relative="1" as="geometry" />
        </mxCell>
        <mxCell id="S8vqt_jlQauHGAst1Mx5-37" value="ПО обращается датасет CAPEC" style="rounded=0;whiteSpace=wrap;html=1;" vertex="1" parent="1">
          <mxGeometry x="317.5" y="230" width="215" height="60" as="geometry" />
        </mxCell>
        <mxCell id="S8vqt_jlQauHGAst1Mx5-38" style="edgeStyle=orthogonalEdgeStyle;rounded=0;orthogonalLoop=1;jettySize=auto;html=1;exitX=0;exitY=0.5;exitDx=0;exitDy=0;entryX=0.5;entryY=0;entryDx=0;entryDy=0;" edge="1" parent="1" source="S8vqt_jlQauHGAst1Mx5-39" target="S8vqt_jlQauHGAst1Mx5-40">
          <mxGeometry relative="1" as="geometry" />
        </mxCell>
        <mxCell id="S8vqt_jlQauHGAst1Mx5-39" value="ID CAPEC найден?" style="rhombus;whiteSpace=wrap;html=1;" vertex="1" parent="1">
          <mxGeometry x="340" y="320" width="172.5" height="80" as="geometry" />
        </mxCell>
        <mxCell id="S8vqt_jlQauHGAst1Mx5-40" value="Вывод сообщения об ошибке поиска" style="rounded=0;whiteSpace=wrap;html=1;" vertex="1" parent="1">
          <mxGeometry x="240" y="400" width="120" height="60" as="geometry" />
        </mxCell>
        <mxCell id="S8vqt_jlQauHGAst1Mx5-41" value="" style="edgeStyle=orthogonalEdgeStyle;rounded=0;orthogonalLoop=1;jettySize=auto;html=1;" edge="1" parent="1" source="S8vqt_jlQauHGAst1Mx5-42" target="S8vqt_jlQauHGAst1Mx5-53">
          <mxGeometry relative="1" as="geometry" />
        </mxCell>
        <mxCell id="S8vqt_jlQauHGAst1Mx5-42" value="ПО сопоставляет CAPEC и CWE" style="rounded=0;whiteSpace=wrap;html=1;" vertex="1" parent="1">
          <mxGeometry x="520" y="490" width="120" height="60" as="geometry" />
        </mxCell>
        <mxCell id="S8vqt_jlQauHGAst1Mx5-43" value="" style="edgeStyle=orthogonalEdgeStyle;rounded=0;orthogonalLoop=1;jettySize=auto;html=1;" edge="1" parent="1" source="S8vqt_jlQauHGAst1Mx5-44" target="S8vqt_jlQauHGAst1Mx5-54">
          <mxGeometry relative="1" as="geometry" />
        </mxCell>
        <mxCell id="S8vqt_jlQauHGAst1Mx5-44" value="Получение ID CWE" style="rounded=0;whiteSpace=wrap;html=1;" vertex="1" parent="1">
          <mxGeometry x="532.5" y="710" width="95" height="60" as="geometry" />
        </mxCell>
        <mxCell id="S8vqt_jlQauHGAst1Mx5-45" value="Нет" style="text;html=1;align=center;verticalAlign=middle;whiteSpace=wrap;rounded=0;" vertex="1" parent="1">
          <mxGeometry x="300" y="330" width="60" height="30" as="geometry" />
        </mxCell>
        <mxCell id="S8vqt_jlQauHGAst1Mx5-46" style="edgeStyle=orthogonalEdgeStyle;rounded=0;orthogonalLoop=1;jettySize=auto;html=1;exitX=0.25;exitY=1;exitDx=0;exitDy=0;entryX=0.5;entryY=0;entryDx=0;entryDy=0;" edge="1" parent="1" source="S8vqt_jlQauHGAst1Mx5-47" target="S8vqt_jlQauHGAst1Mx5-50">
          <mxGeometry relative="1" as="geometry">
            <Array as="points">
              <mxPoint x="581" y="360" />
            </Array>
          </mxGeometry>
        </mxCell>
        <mxCell id="S8vqt_jlQauHGAst1Mx5-47" value="Да" style="text;html=1;align=center;verticalAlign=middle;whiteSpace=wrap;rounded=0;" vertex="1" parent="1">
          <mxGeometry x="497.5" y="330" width="60" height="30" as="geometry" />
        </mxCell>
        <mxCell id="S8vqt_jlQauHGAst1Mx5-48" style="edgeStyle=orthogonalEdgeStyle;rounded=0;orthogonalLoop=1;jettySize=auto;html=1;exitX=0.5;exitY=1;exitDx=0;exitDy=0;entryX=0;entryY=0.5;entryDx=0;entryDy=0;entryPerimeter=0;" edge="1" parent="1" source="S8vqt_jlQauHGAst1Mx5-40" target="S8vqt_jlQauHGAst1Mx5-31">
          <mxGeometry relative="1" as="geometry" />
        </mxCell>
        <mxCell id="S8vqt_jlQauHGAst1Mx5-49" value="" style="edgeStyle=orthogonalEdgeStyle;rounded=0;orthogonalLoop=1;jettySize=auto;html=1;" edge="1" parent="1" source="S8vqt_jlQauHGAst1Mx5-50" target="S8vqt_jlQauHGAst1Mx5-42">
          <mxGeometry relative="1" as="geometry" />
        </mxCell>
        <mxCell id="S8vqt_jlQauHGAst1Mx5-50" value="ПО обращается датасет CWE" style="rounded=0;whiteSpace=wrap;html=1;" vertex="1" parent="1">
          <mxGeometry x="512.5" y="400" width="137.5" height="60" as="geometry" />
        </mxCell>
        <mxCell id="S8vqt_jlQauHGAst1Mx5-51" value="" style="edgeStyle=orthogonalEdgeStyle;rounded=0;orthogonalLoop=1;jettySize=auto;html=1;" edge="1" parent="1" source="S8vqt_jlQauHGAst1Mx5-53" target="S8vqt_jlQauHGAst1Mx5-44">
          <mxGeometry relative="1" as="geometry" />
        </mxCell>
        <mxCell id="S8vqt_jlQauHGAst1Mx5-52" style="edgeStyle=orthogonalEdgeStyle;rounded=0;orthogonalLoop=1;jettySize=auto;html=1;exitX=0;exitY=0.5;exitDx=0;exitDy=0;entryX=0.5;entryY=0;entryDx=0;entryDy=0;" edge="1" parent="1" source="S8vqt_jlQauHGAst1Mx5-53" target="S8vqt_jlQauHGAst1Mx5-35">
          <mxGeometry relative="1" as="geometry" />
        </mxCell>
        <mxCell id="S8vqt_jlQauHGAst1Mx5-53" value="ID CWE найден?" style="rhombus;whiteSpace=wrap;html=1;" vertex="1" parent="1">
          <mxGeometry x="493.75" y="585" width="172.5" height="80" as="geometry" />
        </mxCell>
        <mxCell id="S8vqt_jlQauHGAst1Mx5-54" value="Вывод: ID CWE" style="shape=parallelogram;perimeter=parallelogramPerimeter;whiteSpace=wrap;html=1;fixedSize=1;" vertex="1" parent="1">
          <mxGeometry x="520" y="820" width="120" height="60" as="geometry" />
        </mxCell>
        <mxCell id="S8vqt_jlQauHGAst1Mx5-55" style="edgeStyle=orthogonalEdgeStyle;rounded=0;orthogonalLoop=1;jettySize=auto;html=1;entryX=1;entryY=0.5;entryDx=0;entryDy=0;entryPerimeter=0;" edge="1" parent="1" source="S8vqt_jlQauHGAst1Mx5-54" target="S8vqt_jlQauHGAst1Mx5-31">
          <mxGeometry relative="1" as="geometry">
            <Array as="points">
              <mxPoint x="580" y="920" />
            </Array>
          </mxGeometry>
        </mxCell>
        <mxCell id="S8vqt_jlQauHGAst1Mx5-56" value="Да" style="text;html=1;align=center;verticalAlign=middle;whiteSpace=wrap;rounded=0;" vertex="1" parent="1">
          <mxGeometry x="567.5" y="665" width="60" height="30" as="geometry" />
        </mxCell>
        <mxCell id="S8vqt_jlQauHGAst1Mx5-57" value="Нет" style="text;html=1;align=center;verticalAlign=middle;whiteSpace=wrap;rounded=0;" vertex="1" parent="1">
          <mxGeometry x="450" y="600" width="60" height="30" as="geometry" />
        </mxCell>
      </root>
    </mxGraphModel>
  </diagram>
</mxfile>
